<svg width="90" height="73" viewBox="0 0 90 73" fill="none" xmlns="http://www.w3.org/2000/svg">
<g filter="url(#filter0_d_1_53)">
<path d="M47.7857 32.8572C47.7857 41.4452 45.3324 49.199 41.3915 54.7925C37.4496 60.3875 32.051 63.7857 26.1429 63.7857C20.2347 63.7857 14.8361 60.3875 10.8942 54.7925C6.95331 49.199 4.5 41.4452 4.5 32.8572C4.5 24.2691 6.95331 16.5153 10.8942 10.9218C14.8361 5.32685 20.2347 1.92859 26.1429 1.92859C32.051 1.92859 37.4496 5.32685 41.3915 10.9218C45.3324 16.5153 47.7857 24.2691 47.7857 32.8572Z" fill="white" stroke="black"/>
<path d="M85.5 31.4286C85.5 40.0166 83.0467 47.7704 79.1058 53.3639C75.1639 58.9589 69.7653 62.3571 63.8572 62.3571C57.949 62.3571 52.5504 58.9589 48.6085 53.3639C44.6676 47.7704 42.2143 40.0166 42.2143 31.4286C42.2143 22.8405 44.6676 15.0868 48.6085 9.49319C52.5504 3.89826 57.949 0.5 63.8572 0.5C69.7653 0.5 75.1639 3.89826 79.1058 9.49319C83.0467 15.0868 85.5 22.8405 85.5 31.4286Z" fill="white" stroke="black"/>
<path d="M37.6429 45.1429C37.6429 48.4051 36.7087 51.3373 35.2239 53.4408C33.7381 55.5456 31.7323 56.7857 29.5714 56.7857C27.4105 56.7857 25.4048 55.5456 23.919 53.4408C22.4342 51.3373 21.5 48.4051 21.5 45.1429C21.5 41.8806 22.4342 38.9484 23.919 36.8449C25.4048 34.7401 27.4105 33.5 29.5714 33.5C31.7323 33.5 33.7381 34.7401 35.2239 36.8449C36.7087 38.9484 37.6429 41.8806 37.6429 45.1429Z" fill="black" stroke="black"/>
<path d="M75.3572 45.1429C75.3572 48.4051 74.423 51.3373 72.9382 53.4408C71.4524 55.5456 69.4466 56.7857 67.2857 56.7857C65.1248 56.7857 63.119 55.5456 61.6333 53.4408C60.1485 51.3373 59.2143 48.4051 59.2143 45.1429C59.2143 41.8806 60.1485 38.9484 61.6333 36.8449C63.119 34.7401 65.1248 33.5 67.2857 33.5C69.4466 33.5 71.4524 34.7401 72.9382 36.8449C74.423 38.9484 75.3572 41.8806 75.3572 45.1429Z" fill="black" stroke="black"/>
</g>
<defs>
<filter id="filter0_d_1_53" x="0" y="0" width="90" height="72.2858" filterUnits="userSpaceOnUse" color-interpolation-filters="sRGB">
<feFlood flood-opacity="0" result="BackgroundImageFix"/>
<feColorMatrix in="SourceAlpha" type="matrix" values="0 0 0 0 0 0 0 0 0 0 0 0 0 0 0 0 0 0 127 0" result="hardAlpha"/>
<feOffset dy="4"/>
<feGaussianBlur stdDeviation="2"/>
<feComposite in2="hardAlpha" operator="out"/>
<feColorMatrix type="matrix" values="0 0 0 0 0 0 0 0 0 0 0 0 0 0 0 0 0 0 0.25 0"/>
<feBlend mode="normal" in2="BackgroundImageFix" result="effect1_dropShadow_1_53"/>
<feBlend mode="normal" in="SourceGraphic" in2="effect1_dropShadow_1_53" result="shape"/>
</filter>
</defs>
</svg>
